<svg width="266" height="69" viewBox="0 0 266 69" fill="none" xmlns="http://www.w3.org/2000/svg">
<path d="M51.81 54L57.42 25.62H48.4L49.83 18.25H76.67L75.24 25.62H66.22L60.61 54H51.81ZM75.1321 54L82.2821 18.25H94.0521C96.4355 18.25 98.5805 18.5617 100.487 19.185C102.394 19.7717 103.897 20.7617 104.997 22.155C106.134 23.5483 106.702 25.4 106.702 27.71C106.702 31.0467 105.877 33.7417 104.227 35.795C102.614 37.8483 100.56 39.3517 98.0671 40.305L103.402 54H94.1621L90.0371 41.68H86.3521L83.9321 54H75.1321ZM87.7821 34.75H90.9721C93.3555 34.75 95.1155 34.2183 96.2521 33.155C97.4255 32.0917 98.0122 30.7167 98.0122 29.03C98.0122 27.71 97.5538 26.7383 96.6371 26.115C95.7571 25.4917 94.4921 25.18 92.8421 25.18H89.6521L87.7821 34.75ZM121.472 35.08L119.602 39.26H126.202L126.092 35.08C126.055 33.3567 126 31.67 125.927 30.02C125.89 28.37 125.872 26.6467 125.872 24.85H125.652C124.955 26.61 124.277 28.3333 123.617 30.02C122.957 31.67 122.242 33.3567 121.472 35.08ZM103.212 54L121.912 18.25H132.472L135.882 54H126.642L126.422 45.86H116.577L112.892 54H103.212ZM153.433 54.66C150.646 54.66 148.208 54.0733 146.118 52.9C144.028 51.69 142.396 49.9667 141.223 47.73C140.049 45.4567 139.463 42.7067 139.463 39.48C139.463 36.29 139.958 33.3567 140.948 30.68C141.974 28.0033 143.368 25.6933 145.128 23.75C146.888 21.8067 148.923 20.3033 151.233 19.24C153.579 18.14 156.073 17.59 158.713 17.59C160.803 17.59 162.691 18.1033 164.378 19.13C166.101 20.12 167.476 21.55 168.503 23.42L162.563 28.04C161.279 26.1333 159.849 25.18 158.273 25.18C156.549 25.18 154.936 25.8033 153.433 27.05C151.966 28.26 150.774 29.91 149.858 32C148.941 34.0533 148.483 36.3633 148.483 38.93C148.483 41.4967 149.014 43.495 150.078 44.925C151.141 46.355 152.883 47.07 155.303 47.07C156.256 47.07 157.209 46.8317 158.163 46.355C159.116 45.8417 159.996 45.2367 160.803 44.54L164.433 50.15C163.773 50.7733 162.893 51.4333 161.793 52.13C160.729 52.8267 159.483 53.4317 158.053 53.945C156.659 54.4217 155.119 54.66 153.433 54.66ZM169.395 54L176.545 18.25H185.345L182.65 31.78H182.87L194.585 18.25H204.155L191.285 33.32L199.205 54H190.075L184.795 38.82L180.175 44.1L178.195 54H169.395ZM203.609 54L210.759 18.25H232.539L231.109 25.62H218.019L216.809 31.89H227.919L226.489 39.26H215.379L213.839 46.63H227.369L225.939 54H203.609ZM233.096 54L240.246 18.25H252.016C254.399 18.25 256.544 18.5617 258.451 19.185C260.358 19.7717 261.861 20.7617 262.961 22.155C264.098 23.5483 264.666 25.4 264.666 27.71C264.666 31.0467 263.841 33.7417 262.191 35.795C260.578 37.8483 258.524 39.3517 256.031 40.305L261.366 54H252.126L248.001 41.68H244.316L241.896 54H233.096ZM245.746 34.75H248.936C251.319 34.75 253.079 34.2183 254.216 33.155C255.389 32.0917 255.976 30.7167 255.976 29.03C255.976 27.71 255.518 26.7383 254.601 26.115C253.721 25.4917 252.456 25.18 250.806 25.18H247.616L245.746 34.75Z" fill="#0066FF"/>
<path d="M31.0161 15.713C31.5592 15.1699 32.2039 14.7391 32.9135 14.4452C33.623 14.1513 34.3835 14 35.1516 14C35.9196 14 36.6801 14.1513 37.3897 14.4452C38.0992 14.7391 38.744 15.1699 39.287 15.713C39.8301 16.256 40.2609 16.9008 40.5548 17.6103C40.8487 18.3199 41 19.0804 41 19.8484C41 20.6165 40.8487 21.377 40.5548 22.0866C40.2609 22.7961 39.8301 23.4408 39.287 23.9839L11.3726 51.8984L0 55L3.10161 43.6274L31.0161 15.713Z" fill="#0066FF"/>
</svg>
