<svg width="28" height="28" viewBox="0 0 28 28" fill="none" xmlns="http://www.w3.org/2000/svg">
<path d="M25.512 18.8626C24.7168 20.7432 23.473 22.4004 21.8894 23.6892C20.3057 24.9781 18.4305 25.8594 16.4276 26.2561C14.4247 26.6528 12.3551 26.5528 10.3997 25.9648C8.44436 25.3769 6.66281 24.3189 5.2108 22.8834C3.75879 21.4479 2.68055 19.6785 2.07032 17.73C1.4601 15.7815 1.33648 13.7132 1.71027 11.7059C2.08407 9.69857 2.9439 7.81338 4.21458 6.21513C5.48527 4.61689 7.12813 3.35424 8.99953 2.5376" stroke="#0066FF" stroke-width="2" stroke-linecap="round" stroke-linejoin="round"/>
<path d="M26.5 14C26.5 12.3585 26.1767 10.733 25.5485 9.21646C24.9203 7.69989 23.9996 6.3219 22.8388 5.16117C21.6781 4.00043 20.3001 3.07969 18.7835 2.45151C17.267 1.82332 15.6415 1.5 14 1.5V14H26.5Z" stroke="#0066FF" stroke-width="2" stroke-linecap="round" stroke-linejoin="round"/>
</svg>
